# xmcd
#
# Track frame offsets: 
#        150
#        23851
#        43269
#        66140
#        75572
#        92054
#        116374
#        141564
#        159412
#
# Disc length: 2393 seconds
#
# Revision: 0
# Processed by: cddbd v1.5.1PL2 Copyright (c) Steve Scherf et al.
# Submitted via: ExactAudioCopy v0.95b4
#
DISCID=73095709
DTITLE=Clockcleaner - Nevermind
DYEAR=2005
DGENRE=Post Punk
TTITLE0=Interview With A Black Man
TTITLE1=Missing Dick
TTITLE2=New Slow
TTITLE3=Deaf Man Talking
TTITLE4=In The Shit
TTITLE5=Blood Driver
TTITLE6=Gentle Swastika
TTITLE7=NSA
TTITLE8=Early Man
EXTD=
EXTT0=
EXTT1=
EXTT2=
EXTT3=
EXTT4=
EXTT5=
EXTT6=
EXTT7=
EXTT8=
PLAYORDER=
